# xmcd
#
# Track frame offsets:
#	150
#	16884
#	36940
#	55269
#	70076
#	83378
#	98685
#	112962
#	126720
#	140178
#	156993
#	170236
#	182631
#	200651
#	211009
#	223460
#
# Disc length: 3148 seconds
#
# Revision: 1
# Processed by: cddbd v1.5.2PL0 Copyright (c) Steve Scherf et al.
# Submitted via: audiograbber 1.83.01
#
DISCID=f00c4a10
DTITLE=Various Artist - Catfish Records Sampler
DYEAR=2002
DGENRE=Folk - Blues
TTITLE0=Ted Hawkins - Baby
TTITLE1=Michael Messer - Crow Blues
TTITLE2=Terry Clarke - Gone in the Morning
TTITLE3=The Fatlanders - Blue Wind Blew
TTITLE4=Townes Van Zandt - Ain't Leavin' Your Love
TTITLE5=Steve Earle - Tom Ames' Prayer
TTITLE6=Charley Patton - Mississippi Boweavil Blues
TTITLE7=Leadbelly - Matchbox Blues
TTITLE8=Joseph Falcon - Allons a Lafayette
TTITLE9=Jesse Taylor and John X Reed - Don't Give Up
TTITLE10=The Carter Family - Are You Lonesome Tonight
TTITLE11=Bill Munroe - Mule Skinner Blues
TTITLE12=John Prine - Loretta
TTITLE13=Mahalia Jackson - Amazing Grace
TTITLE14=Lightnin' Hopkins - Short Haired Woman
TTITLE15=Sonny Terry and Brownie McGhee - Shake Down Blues
EXTD=Issued as a Free Sampler CD in 2002 for promotion use only by catfishrecor
EXTD=ds.co.uk
EXTT0=
EXTT1=
EXTT2=
EXTT3=
EXTT4=
EXTT5=
EXTT6=
EXTT7=
EXTT8=
EXTT9=
EXTT10=
EXTT11=
EXTT12=
EXTT13=
EXTT14=
EXTT15=
PLAYORDER=
